<svg width="40" height="38" viewBox="0 0 40 38" fill="none" xmlns="http://www.w3.org/2000/svg">
<path d="M22.1346 0.552309C20.8042 -0.181246 19.1941 -0.184267 17.861 0.544292L2.33056 9.03154C0.894374 9.8164 0.000195393 11.3285 0.000173373 12.9722L4.0833e-10 25.9145C-2.29943e-05 27.631 0.974256 29.1971 2.5093 29.9478L4.70556 31.022C5.24504 29.7223 5.89827 28.4569 6.68583 27.2913C11.0634 20.8126 14.1449 18.7185 17.0134 16.8011C17.2279 16.6577 17.2354 16.3441 17.0283 16.1901L10.3798 11.2476C10.2736 11.1686 10.2808 11.0067 10.3936 10.9377L12.4095 9.70296C12.5121 9.64012 12.6386 9.63103 12.749 9.67855L17.1143 11.5569C17.227 11.6054 17.3561 11.5949 17.4596 11.529L18.9955 10.5496C19.083 10.4939 19.1989 10.5208 19.2533 10.6095L20.1671 12.1014C20.2107 12.1726 20.2019 12.2643 20.1457 12.3259L19.9863 12.5003C19.8989 12.5959 19.9328 12.7498 20.0522 12.7994L22.0868 13.6447C22.1509 13.6714 22.2243 13.6596 22.2786 13.6161C23.1691 12.9036 25.4069 11.6935 28.1451 11.8252C28.3662 11.8358 28.5184 12.0457 28.441 12.2543C28.0396 13.3349 26.7638 15.2381 23.9118 16.602C23.8531 16.6301 23.8119 16.6869 23.8048 16.7518L23.5754 18.847C23.5633 18.9576 23.6494 19.0543 23.7601 19.0543H24.0246C24.0932 19.0543 24.1561 19.0922 24.1885 19.153L24.9803 20.6404C25.0265 20.7273 24.9977 20.8354 24.9144 20.8874L23.2521 21.925C23.2045 21.9547 23.1728 22.0044 23.1658 22.0603L22.5552 26.9251C22.5475 26.9865 22.51 27.0401 22.4552 27.0682L20.2077 28.2196C20.0892 28.2803 19.9476 28.1999 19.938 28.0666L19.3268 19.5853C19.3176 19.4572 19.1866 19.3763 19.0713 19.4314C16.8589 20.488 12.7208 23.8142 12.145 29.6349C11.9581 31.5247 12.0715 33.2465 12.4073 34.7888L18.0494 37.5483C19.2808 38.1506 20.7191 38.1506 21.9506 37.5483L37.4907 29.9478C39.0257 29.1971 40 27.6311 40 25.9145V13.0585C40 11.4207 39.1123 9.91312 37.6842 9.12575L22.1346 0.552309Z" fill="#316BFF"/>
</svg>
